<?xml version="1.0" encoding="utf-8"?><!-- Uploaded to: SVG Repo, www.svgrepo.com, Generator: SVG Repo Mixer Tools -->
<svg fill="#000000" width="800px" height="800px" viewBox="0 0 24 24" id="sign-alt" data-name="Flat Color" xmlns="http://www.w3.org/2000/svg" class="icon flat-color"><path id="secondary" d="M18,10a1,1,0,0,1-.71-.29L12,4.41,6.71,9.71A1,1,0,0,1,5.29,8.29l6-6a1,1,0,0,1,1.42,0l6,6a1,1,0,0,1,0,1.42A1,1,0,0,1,18,10Z" style="fill: rgb(44, 169, 188);"></path><path id="primary" d="M20,8H4a2,2,0,0,0-2,2V21a1,1,0,0,0,1,1H21a1,1,0,0,0,1-1V10A2,2,0,0,0,20,8Z" style="fill: rgb(0, 0, 0);"></path><path id="secondary-2" data-name="secondary" d="M14,18H10a1,1,0,0,1,0-2h4a1,1,0,0,1,0,2Zm2-4H8a1,1,0,0,1,0-2h8a1,1,0,0,1,0,2Z" style="fill: rgb(44, 169, 188);"></path></svg>